:FULLY-SPECIFIED
:FORCE-ALL-JOINTS-BE-3DOF
:DEGREES
2752
root -5.58988 13.9563 -28.4156 162.032 -65.2065 -161.107
lfemur -59.5003 42.9911 -6.32443
ltibia 67.9411 -0 0
lfoot -2.45918 -1.34487 0.00100978
ltoes -31.3597 0 0
rfemur -30.8835 -18.5772 21.6847
rtibia 81.8084 -0 0
rfoot -35.0894 -24.7832 0.00235585
rtoes -14.5794 0 0
lowerback 15.7298 5.82259 0.538128
upperback -4.02595 8.12568 1.48711
thorax -13.472 3.80406 -0.848494
lowerneck -2.40188 9.61809 2.06371
upperneck 7.51969 12.5792 1.98098
head 2.80862 6.34984 0.686748
lclavicle 2.27484e-14 -6.36111e-15 0
lhumerus 3.54749 10.6994 83.9481
lradius 94.7896 -0 0
lwrist -19.1687 0 0
lhand -39.8018 27.6331 5.56702e-05
lfingers 7.12502 -0 0
lthumb -12.7766 57.2229 5.37139e-05
rclavicle 2.27484e-14 -6.36111e-15 0
rhumerus -57.8845 50.8867 -110.175
rradius 114.097 -0 0
rwrist -84.6712 0 0
rhand 4.64054 -26.956 4.02241e-05
rfingers 7.12502 -0 0
rthumb 30.0271 -54.5382 8.82307e-05
2753
root -5.60486 13.9443 -28.425 162.061 -65.2191 -161.125
lfemur -59.5841 43.0558 -6.32745
ltibia 68.0982 -0 0
lfoot -2.51433 -1.42008 0.00131756
ltoes -31.3668 0 0
rfemur -30.8731 -18.6042 21.6638
rtibia 81.9098 -0 0
rfoot -35.1992 -24.8131 0.0030096
rtoes -14.5944 0 0
lowerback 15.704 5.82195 0.524159
upperback -4.0389 8.12204 1.48705
thorax -13.4736 3.80371 -0.838047
lowerneck -2.40069 9.61742 2.06606
upperneck 7.54447 12.5775 1.98251
head 2.81693 6.34909 0.687746
lclavicle 2.27484e-14 -6.36111e-15 0
lhumerus 3.55027 10.7306 83.947
lradius 94.7676 -0 0
lwrist -19.1946 0 0
lhand -39.7982 27.638 7.03233e-05
lfingers 7.12502 -0 0
lthumb -12.7732 57.228 6.78598e-05
rclavicle 2.27484e-14 -6.36111e-15 0
rhumerus -57.9185 50.845 -110.2
rradius 114.102 -0 0
rwrist -84.6512 0 0
rhand 4.67972 -26.9358 5.96291e-05
rfingers 7.12502 -0 0
rthumb 30.0644 -54.5113 0.000122503
2754
root -5.61877 13.9329 -28.4338 162.09 -65.232 -161.144
lfemur -59.6696 43.122 -6.32942
ltibia 68.2604 -0 0
lfoot -2.57127 -1.49752 0.00162593
ltoes -31.374 0 0
rfemur -30.8625 -18.6313 21.6425
rtibia 82.0158 -0 0
rfoot -35.313 -24.8445 0.00366553
rtoes -14.6079 0 0
lowerback 15.6775 5.82128 0.509874
upperback -4.05212 8.11831 1.48716
thorax -13.4752 3.80336 -0.827142
lowerneck -2.39971 9.61677 2.06852
upperneck 7.57045 12.5758 1.98393
head 2.82571 6.34834 0.688753
lclavicle 2.27484e-14 -6.36111e-15 0
lhumerus 3.55226 10.7626 83.946
lradius 94.7459 -0 0
lwrist -19.2196 0 0
lhand -39.7945 27.6439 8.49677e-05
lfingers 7.12502 -0 0
lthumb -12.7696 57.2341 8.19974e-05
rclavicle 2.27484e-14 -6.36111e-15 0
rhumerus -57.9521 50.8034 -110.225
rradius 114.106 -0 0
rwrist -84.6318 0 0
rhand 4.72002 -26.9152 7.92781e-05
rfingers 7.12502 -0 0
rthumb 30.1029 -54.4836 0.000157051
2755
root -5.63168 13.9221 -28.4422 162.12 -65.2453 -161.164
lfemur -59.7565 43.1897 -6.33039
ltibia 68.4269 -0 0
lfoot -2.62982 -1.57693 0.00192529
ltoes -31.3814 0 0
rfemur -30.8518 -18.6584 21.6208
rtibia 82.1262 -0 0
rfoot -35.4304 -24.8774 0.00431258
rtoes -14.6199 0 0
lowerback 15.6502 5.82057 0.495313
upperback -4.06557 8.1145 1.48745
thorax -13.4767 3.80301 -0.815818
lowerneck -2.39893 9.61612 2.07109
upperneck 7.59754 12.5741 1.98523
head 2.83492 6.34758 0.689766
lclavicle 2.27484e-14 -6.36111e-15 0
lhumerus 3.55347 10.7953 83.9449
lradius 94.7245 -0 0
lwrist -19.2436 0 0
lhand -39.7907 27.6507 9.94536e-05
lfingers 7.12502 -0 0
lthumb -12.7659 57.2411 9.5981e-05
rclavicle 2.27484e-14 -6.36111e-15 0
rhumerus -57.9854 50.7621 -110.251
rradius 114.11 -0 0
rwrist -84.613 0 0
rhand 4.76132 -26.8942 9.76572e-05
rfingers 7.12502 -0 0
rthumb 30.1423 -54.4554 0.000189869
2756
root -5.64364 13.9118 -28.45 162.149 -65.259 -161.185
lfemur -59.8447 43.2587 -6.3304
ltibia 68.5973 -0 0
lfoot -2.6898 -1.6581 0.00220686
ltoes -31.3889 0 0
rfemur -30.8409 -18.6853 21.5988
rtibia 82.2405 -0 0
rfoot -35.5511 -24.9116 0.00494029
rtoes -14.6305 0 0
lowerback 15.6224 5.81983 0.480518
upperback -4.07922 8.11062 1.4879
thorax -13.4781 3.80267 -0.804111
lowerneck -2.39836 9.61548 2.07376
upperneck 7.62564 12.5724 1.98642
head 2.84454 6.34682 0.690783
lclavicle 2.27484e-14 -6.36111e-15 0
lhumerus 3.55393 10.8286 83.9439
lradius 94.7034 -0 0
lwrist -19.2665 0 0
lhand -39.7868 27.6584 0.000113635
lfingers 7.12502 -0 0
lthumb -12.7622 57.249 0.000109668
rclavicle 2.27484e-14 -6.36111e-15 0
rhumerus -58.0182 50.7212 -110.277
rradius 114.113 -0 0
rwrist -84.5949 0 0
rhand 4.80351 -26.8728 0.000113403
rfingers 7.12502 -0 0
rthumb 30.1825 -54.4267 0.000219141
